<svg width="529" height="497" viewBox="0 0 529 497" fill="none" xmlns="http://www.w3.org/2000/svg">
<path d="M60.1619 232.535C47.6591 344.08 128.092 444.646 239.858 457.131C351.624 469.616 452.302 389.282 464.805 277.737C477.308 166.192 396.875 65.6258 285.109 53.1407C173.343 40.6556 72.6334 120.987 60.1306 232.532L60.1619 232.535Z" stroke="url(#paint0_linear_2150_6987)" stroke-opacity="0.06" stroke-width="1.54362" stroke-miterlimit="10"/>
<path d="M476.425 277.892C470.723 313.488 456.309 346.213 434.719 372.82C417.883 393.502 397.125 410.424 374.026 423.634C334.468 446.24 288.221 458.099 240.773 458.052C214.027 458.83 188.566 458.043 163.842 452.37C144.931 448.295 126.3 441.151 109.833 429.691C98.6032 421.285 88.9471 410.713 81.9951 398.924C68.4628 375.988 62.0707 351.002 58.0797 325.24C53.2548 289.1 53.6118 250.565 60.5268 211.496C65.2442 184.682 74.413 159.725 87.4936 137.199C105.935 106.159 132.853 80.938 164.51 64.3479C200.872 44.8026 243.31 36.6636 286.754 40.1876C331.281 43.6743 372.974 58.0152 407.364 82.9325C433.792 102.245 454.94 129.069 466.459 159.786C480.245 196.579 482.927 237.131 476.393 277.888L476.425 277.892Z" stroke="url(#paint1_linear_2150_6987)" stroke-opacity="0.06" stroke-width="1.54362" stroke-miterlimit="10"/>
<path d="M488.004 278.045C480.737 313.467 464.844 346.375 441.213 372.247C422.933 392.23 400.698 407.911 376.744 420.266C335.357 441.655 288.706 453.722 241.678 458.975C211.138 463.064 181.891 467.771 152.253 465.789C129.909 464.907 106.924 459.84 86.9651 447.579C73.5857 438.268 62.6687 425.371 56.3834 410.745C44.1148 382.191 43.1955 351.931 43.5599 321.814C45.423 279.174 50.547 234.874 60.8859 190.428C66.907 164.709 76.8891 140.697 90.1051 118.661C108.9 88.7044 136.266 64.863 167.911 49.7906C204.404 31.6206 246.215 25.1204 288.36 27.2334C336.084 29.6216 382.552 41.5212 421.604 66.7061C451.399 85.952 475.071 115.431 485.488 149.474C498.063 190.562 496.881 234.765 488.004 278.045Z" stroke="url(#paint2_linear_2150_6987)" stroke-opacity="0.06" stroke-width="1.54362" stroke-miterlimit="10"/>
<path d="M499.623 278.192C490.909 313.516 473.482 346.537 447.775 371.703C428.083 390.99 404.346 405.364 379.526 416.958C336.282 437.096 289.256 449.405 242.652 459.927C208.341 467.392 175.277 477.59 140.731 479.237C114.919 481.576 87.6474 478.561 64.1927 465.529C48.6641 455.314 36.5138 440.128 30.8708 422.599C19.8973 388.43 24.4196 352.892 29.1116 318.385C37.6939 269.249 47.2198 219.048 61.3721 169.427C68.457 144.681 79.5307 121.677 92.8506 100.128C111.961 71.3136 139.782 48.7888 171.412 35.2653C208.04 18.4395 249.237 13.453 290.036 14.2765C340.987 15.3162 392.129 25.1114 435.852 50.4701C469.043 69.6839 495.203 101.846 504.491 139.181C515.789 184.588 510.997 232.438 499.62 278.224L499.623 278.192Z" stroke="url(#paint3_linear_2150_6987)" stroke-opacity="0.06" stroke-width="1.54362" stroke-miterlimit="10"/>
<path d="M450.097 34.2285C401.555 8.86954 345.795 1.5331 291.671 1.37305C252.171 2.24538 211.578 5.24231 174.871 20.7935C143.221 32.7958 114.981 53.9763 95.5541 81.6476C82.0676 102.704 69.565 124.598 61.7885 148.444C42.9568 203.049 29.8603 259.37 14.6178 315.04C5.59822 353.937 -4.65447 394.785 5.31633 434.506C10.1882 454.955 23.7317 472.417 41.3783 483.534C68.3322 497.304 99.9194 498.301 129.202 492.711C168.663 487.373 205.572 471.717 243.65 460.908C289.837 445.055 337.017 431.94 382.367 413.651C407.925 402.551 433.574 390.068 454.388 371.223C482.509 347.149 501.043 313.587 511.295 278.404C525.018 230.064 532.896 178.729 523.587 128.861C514.782 88.3525 486.606 53.5282 450.16 34.2355L450.097 34.2285Z" stroke="url(#paint4_linear_2150_6987)" stroke-opacity="0.06" stroke-width="1.54362" stroke-miterlimit="10"/>
<defs>
<linearGradient id="paint0_linear_2150_6987" x1="758.935" y1="313.532" x2="685.193" y2="610.357" gradientUnits="userSpaceOnUse">
<stop stop-color="#06038F"/>
<stop offset="1" stop-color="#BB133E"/>
</linearGradient>
<linearGradient id="paint1_linear_2150_6987" x1="758.935" y1="313.532" x2="685.193" y2="610.357" gradientUnits="userSpaceOnUse">
<stop stop-color="#06038F"/>
<stop offset="1" stop-color="#BB133E"/>
</linearGradient>
<linearGradient id="paint2_linear_2150_6987" x1="758.935" y1="313.532" x2="685.193" y2="610.357" gradientUnits="userSpaceOnUse">
<stop stop-color="#06038F"/>
<stop offset="1" stop-color="#BB133E"/>
</linearGradient>
<linearGradient id="paint3_linear_2150_6987" x1="758.935" y1="313.532" x2="685.193" y2="610.357" gradientUnits="userSpaceOnUse">
<stop stop-color="#06038F"/>
<stop offset="1" stop-color="#BB133E"/>
</linearGradient>
<linearGradient id="paint4_linear_2150_6987" x1="758.935" y1="313.532" x2="685.193" y2="610.357" gradientUnits="userSpaceOnUse">
<stop stop-color="#06038F"/>
<stop offset="1" stop-color="#BB133E"/>
</linearGradient>
</defs>
</svg>
