<svg width="134" height="62" viewBox="0 0 134 62" fill="none" xmlns="http://www.w3.org/2000/svg">
<path d="M45.697 48.2441C48.0326 47.6906 50.3887 49.0572 50.965 51.3007C51.5412 53.5441 50.1184 55.8071 47.7828 56.3607C45.4471 56.9142 43.091 55.5475 42.5148 53.309C41.9385 51.0704 43.3613 48.8025 45.6919 48.249" fill="white"/>
<path d="M42.9639 40.8874C42.9639 40.8874 51.0928 41.3773 53.5253 50.8262C55.9579 60.2751 61.7613 61.049 61.7613 61.049C61.7613 61.049 58.4363 58.7419 57.0594 49.9886C55.6825 41.2352 45.1924 40.3584 42.969 40.8874" fill="white"/>
<path d="M81.5462 48.2441C79.2105 47.6906 76.8545 49.0572 76.2782 51.3007C75.7019 53.5441 77.1247 55.8071 79.4604 56.3607C81.7961 56.9142 84.1521 55.5475 84.7284 53.309C85.3046 51.0704 83.8818 48.8025 81.5513 48.249" fill="white"/>
<path d="M84.2793 40.8874C84.2793 40.8874 76.1504 41.3773 73.7178 50.8262C71.2853 60.2751 65.4819 61.049 65.4819 61.049C65.4819 61.049 68.8069 58.7419 70.1838 49.9886C71.5607 41.2352 82.0507 40.3584 84.2742 40.8874" fill="white"/>
<path d="M81.5462 13.7559C79.2105 14.3094 76.8545 12.9428 76.2782 10.6993C75.7019 8.4559 77.1247 6.19286 79.4604 5.63935C81.7961 5.08583 84.1521 6.45248 84.7284 8.69102C85.3046 10.9296 83.8818 13.1975 81.5513 13.751" fill="white"/>
<path d="M84.2793 21.1126C84.2793 21.1126 76.1504 20.6227 73.7178 11.1738C71.2853 1.72491 65.4819 0.95097 65.4819 0.95097C65.4819 0.95097 68.8069 3.25809 70.1838 12.0114C71.5607 20.7648 82.0507 21.6416 84.2742 21.1126" fill="white"/>
<path d="M45.697 13.7559C48.0326 14.3094 50.3887 12.9428 50.965 10.6993C51.5412 8.4559 50.1184 6.19286 47.7828 5.63935C45.4471 5.08583 43.091 6.45248 42.5148 8.69102C41.9385 10.9296 43.3613 13.1975 45.6919 13.751" fill="white"/>
<path d="M42.9639 21.1126C42.9639 21.1126 51.0928 20.6227 53.5253 11.1738C55.9579 1.72491 61.7613 0.95097 61.7613 0.95097C61.7613 0.95097 58.4363 3.25809 57.0594 12.0114C55.6825 20.7648 45.1924 21.6416 42.969 21.1126" fill="white"/>
<path d="M1.91748 23.2461H0V38.0146H1.91748V23.2461Z" fill="white"/>
<path d="M1.91748 23.2461H0V38.0146H1.91748V23.2461Z" fill="white"/>
<path d="M6.65039 22.5391L18.1961 34.1579V23.2444H20.1136V38.6252L8.56787 27.0064V38.0178H6.65039V22.5391Z" fill="white"/>
<path d="M24.7236 23.2461H27.9058C32.6179 23.2461 36.5345 25.6365 36.5345 30.5544C36.5345 35.4724 32.6995 38.0195 27.8446 38.0195H24.7236V23.2461ZM26.6411 36.3345H27.3143C31.2308 36.3345 34.617 34.9238 34.617 30.6328C34.617 26.3418 31.2308 24.9311 27.3143 24.9311H26.6411V36.3345Z" fill="white"/>
<path d="M42.3481 23.2461H40.4307V38.0146H42.3481V23.2461Z" fill="white"/>
<path d="M49.4464 34.3135L47.6921 38.0166H45.6318L52.9754 22.6211L60.3189 38.0166H58.2587L56.5044 34.3135H49.4464ZM52.9754 26.6524L50.2419 32.6284H55.7088L52.9754 26.6524Z" fill="white"/>
<path d="M70.4777 26.045C69.9065 25.1241 69.1721 24.6539 68.0094 24.6539C66.7855 24.6539 65.4392 25.4572 65.4392 26.7504C65.4392 27.9064 66.6223 28.5138 67.581 28.8665L68.6826 29.2779C70.8652 30.1009 72.4971 31.2569 72.4971 33.7257C72.4971 36.4099 70.3349 38.3301 67.581 38.3301C65.0924 38.3301 63.1545 36.5667 62.8281 34.1959L64.766 33.804C64.7456 35.4303 66.0919 36.6059 67.7442 36.6059C69.3965 36.6059 70.5796 35.2735 70.5796 33.7257C70.5796 32.1778 69.2537 31.4528 67.9278 30.9238L66.8671 30.4927C65.1128 29.7678 63.5217 28.8077 63.5217 26.7504C63.5217 24.36 65.7247 22.9297 68.0502 22.9297C69.7637 22.9297 71.1712 23.733 72.0076 25.1633L70.4777 26.045Z" fill="white"/>
<path d="M78.5552 38.0185H76.6377V23.25H78.8408C83.5733 23.25 85.042 24.8175 85.042 27.5214C85.042 30.6367 82.5737 31.8319 79.6567 31.8319H78.5552V38.0234V38.0185ZM78.5552 30.1812H79.1671C81.1254 30.1812 83.2469 29.8285 83.2469 27.4773C83.2469 25.1261 80.9622 24.8909 79.0651 24.8909H78.5552V30.1812Z" fill="white"/>
<path d="M103.804 30.6299C103.804 35.0188 100.194 38.3301 95.747 38.3301C91.3 38.3301 87.6895 35.0188 87.6895 30.6299C87.6895 26.241 91.3408 22.9297 95.747 22.9297C100.153 22.9297 103.804 26.3977 103.804 30.6299ZM101.887 30.6299C101.887 27.3774 99.3575 24.6539 95.747 24.6539C92.1364 24.6539 89.6069 27.3774 89.6069 30.6299C89.6069 33.8824 92.422 36.6059 95.747 36.6059C99.072 36.6059 101.887 34 101.887 30.6299Z" fill="white"/>
<path d="M117.267 38.0185H114.942L110.413 31.7682H109.618V38.0185H107.7V23.25H110.026C111.392 23.25 112.861 23.2696 114.085 23.9358C115.37 24.6607 116.104 26.0519 116.104 27.4626C116.104 29.5787 114.636 31.3421 112.412 31.5968L117.267 38.0234V38.0185ZM109.623 30.2399H110.235C112.193 30.2399 114.314 29.8873 114.314 27.5361C114.314 25.1848 112.03 24.8909 110.133 24.8909H109.623V30.2399Z" fill="white"/>
<path d="M123.004 34.3135L121.25 38.0166H119.189L126.533 22.6211L133.877 38.0166H131.816L130.062 34.3135H123.004ZM126.533 26.6524L123.8 32.6284H129.266L126.533 26.6524Z" fill="white"/>
</svg>
