<svg width="133" height="62" viewBox="0 0 133 62" fill="none" xmlns="http://www.w3.org/2000/svg">
<path d="M45.2801 48.7909C47.5945 48.2199 49.929 49.6298 50.5001 51.9441C51.0711 54.2585 49.6612 56.5931 47.3469 57.1641C45.0325 57.7351 42.6979 56.3253 42.1269 54.016C41.5559 51.7066 42.9657 49.367 45.275 48.796" fill="#FF671F"/>
<path d="M42.5713 41.1999C42.5713 41.1999 50.6261 41.7052 53.0365 51.4528C55.4469 61.2005 61.1974 61.9989 61.1974 61.9989C61.1974 61.9989 57.9027 59.6188 56.5384 50.5887C55.174 41.5586 44.7795 40.6541 42.5763 41.1999" fill="#FF671F"/>
<path d="M80.8029 48.7909C78.4885 48.2199 76.154 49.6298 75.5829 51.9441C75.0119 54.2585 76.4218 56.5931 78.7361 57.1641C81.0505 57.7351 83.3851 56.3253 83.9561 54.016C84.5271 51.7066 83.1173 49.367 80.808 48.796" fill="#06038F"/>
<path d="M83.5117 41.1999C83.5117 41.1999 75.4569 41.7052 73.0465 51.4528C70.6362 61.2005 64.8856 61.9989 64.8856 61.9989C64.8856 61.9989 68.1803 59.6188 69.5447 50.5887C70.909 41.5586 81.3035 40.6541 83.5067 41.1999" fill="#06038F"/>
<path d="M80.8029 13.2091C78.4885 13.7801 76.154 12.3702 75.5829 10.0559C75.0119 7.74149 76.4218 5.40691 78.7361 4.83589C81.0505 4.26488 83.3851 5.67473 83.9561 7.98404C84.5271 10.2934 83.1173 12.633 80.808 13.204" fill="#139F49"/>
<path d="M83.5117 20.8001C83.5117 20.8001 75.4569 20.2948 73.0465 10.5472C70.6362 0.799545 64.8856 0.00113678 64.8856 0.00113678C64.8856 0.00113678 68.1803 2.3812 69.5447 11.4113C70.909 20.4414 81.3035 21.3459 83.5067 20.8001" fill="#139F49"/>
<path d="M45.2801 13.2091C47.5945 13.7801 49.929 12.3702 50.5001 10.0559C51.0711 7.74149 49.6612 5.40691 47.3469 4.83589C45.0325 4.26488 42.6979 5.67473 42.1269 7.98404C41.5559 10.2934 42.9657 12.633 45.275 13.204" fill="#BB133E"/>
<path d="M42.5713 20.8001C42.5713 20.8001 50.6261 20.2948 53.0365 10.5472C55.4469 0.799545 61.1974 0.00113678 61.1974 0.00113678C61.1974 0.00113678 57.9027 2.3812 56.5384 11.4113C55.174 20.4414 44.7795 21.3459 42.5763 20.8001" fill="#BB133E"/>
<path d="M1.90001 23H0V38.2354H1.90001V23Z" fill="#414042"/>
<path d="M1.90001 23H0V38.2354H1.90001V23Z" fill="#414042"/>
<path d="M6.58984 22.2734L18.0303 34.2596V23.0011H19.9303V38.8682L8.48985 26.882V38.2416H6.58984V22.2734Z" fill="#414042"/>
<path d="M24.498 23H27.6512C32.3204 23 36.2013 25.466 36.2013 30.5394C36.2013 35.6128 32.4013 38.2405 27.5906 38.2405H24.498V23ZM26.3981 36.5022H27.0651C30.9459 36.5022 34.3013 35.0468 34.3013 30.6202C34.3013 26.1936 30.9459 24.7383 27.0651 24.7383H26.3981V36.5022Z" fill="#414042"/>
<path d="M41.9615 23H40.0615V38.2354H41.9615V23Z" fill="#414042"/>
<path d="M48.9956 34.4214L47.2573 38.2416H45.2158L52.4924 22.3594L59.769 38.2416H57.7276L55.9893 34.4214H48.9956ZM52.4924 26.5182L49.7839 32.6831H55.201L52.4924 26.5182Z" fill="#414042"/>
<path d="M69.8357 25.8896C69.2697 24.9396 68.542 24.4545 67.3899 24.4545C66.1771 24.4545 64.8431 25.2832 64.8431 26.6173C64.8431 27.8098 66.0154 28.4364 66.9655 28.8003L68.0569 29.2247C70.2197 30.0737 71.8367 31.2662 71.8367 33.813C71.8367 36.5822 69.6942 38.5631 66.9655 38.5631C64.4995 38.5631 62.5793 36.7439 62.2559 34.2982L64.1761 33.8939C64.1559 35.5716 65.4899 36.7843 67.1271 36.7843C68.7644 36.7843 69.9367 35.4099 69.9367 33.813C69.9367 32.2162 68.6229 31.4684 67.3091 30.9226L66.258 30.4779C64.5197 29.7301 62.9431 28.7396 62.9431 26.6173C62.9431 24.1513 65.1261 22.6758 67.4303 22.6758C69.1282 22.6758 70.5229 23.5045 71.3516 24.98L69.8357 25.8896Z" fill="#414042"/>
<path d="M77.8395 38.2393H75.9395V23.0039H78.1224C82.8118 23.0039 84.2671 24.6209 84.2671 27.4103C84.2671 30.6241 81.8214 31.8571 78.931 31.8571H77.8395V38.2444V38.2393ZM77.8395 30.1542H78.4458C80.3863 30.1542 82.4884 29.7904 82.4884 27.3648C82.4884 24.9393 80.2246 24.6967 78.3448 24.6967H77.8395V30.1542Z" fill="#414042"/>
<path d="M102.858 30.6194C102.858 35.1471 99.2801 38.5631 94.8737 38.5631C90.4673 38.5631 86.8896 35.1471 86.8896 30.6194C86.8896 26.0917 90.5077 22.6758 94.8737 22.6758C99.2397 22.6758 102.858 26.2534 102.858 30.6194ZM100.958 30.6194C100.958 27.2641 98.4514 24.4545 94.8737 24.4545C91.296 24.4545 88.7897 27.2641 88.7897 30.6194C88.7897 33.9747 91.579 36.7843 94.8737 36.7843C98.1684 36.7843 100.958 34.096 100.958 30.6194Z" fill="#414042"/>
<path d="M116.199 38.2393H113.894L109.407 31.7914H108.619V38.2393H106.719V23.0039H109.023C110.377 23.0039 111.833 23.0241 113.045 23.7114C114.319 24.4592 115.046 25.8943 115.046 27.3497C115.046 29.5326 113.591 31.3518 111.388 31.6146L116.199 38.2444V38.2393ZM108.624 30.2148H109.23C111.171 30.2148 113.273 29.851 113.273 27.4255C113.273 24.9999 111.009 24.6967 109.129 24.6967H108.624V30.2148Z" fill="#414042"/>
<path d="M121.883 34.4214L120.145 38.2416H118.104L125.38 22.3594L132.657 38.2416H130.615L128.877 34.4214H121.883ZM125.38 26.5182L122.672 32.6831H128.089L125.38 26.5182Z" fill="#414042"/>
</svg>
